<?xml version="1.0" standalone="no"?>
<!DOCTYPE svg PUBLIC "-//W3C//DTD SVG 20010904//EN"
 "http://www.w3.org/TR/2001/REC-SVG-20010904/DTD/svg10.dtd">
<svg version="1.0" xmlns="http://www.w3.org/2000/svg"
 width="175" height="400" viewBox="0 0 1080.000000 1080.000000"
 preserveAspectRatio="xMidYMid meet">

<g transform="translate(0.000000,1080.000000) scale(0.100000,-0.100000)"
fill="#000000" stroke="none">
<path d="M4260 7878 c-1 -96 -60 -2071 -62 -2073 -2 -3 -816 40 -1286 67 -59
4 -63 3 -69 -20 -8 -32 11 -62 67 -104 43 -32 52 -49 65 -110 4 -20 15 -30 47
-40 35 -12 49 -25 75 -68 19 -31 48 -64 70 -77 21 -12 46 -40 58 -62 12 -25
42 -56 80 -82 33 -23 67 -51 75 -63 8 -12 27 -32 42 -46 15 -13 28 -30 28 -37
0 -23 32 -108 44 -115 6 -4 962 -8 2125 -8 l2113 0 -6 43 c-5 33 -1 53 20 97
34 71 49 186 28 217 -8 12 -14 29 -14 38 0 8 -9 24 -20 35 -11 11 -20 33 -20
48 0 19 -12 39 -35 62 -32 32 -34 38 -29 81 5 39 2 49 -20 76 -14 17 -26 35
-26 39 0 5 -12 18 -27 30 l-27 21 -12 334 c-7 184 -13 349 -13 367 -1 28 -4
32 -27 32 -14 0 -39 -8 -54 -17 -27 -15 -30 -15 -57 3 -15 10 -48 21 -73 24
-34 4 -47 10 -55 27 -7 16 -21 24 -52 29 -32 5 -43 11 -43 24 0 11 -10 20 -30
24 -18 3 -30 12 -30 21 0 8 -7 15 -15 15 -8 0 -14 -3 -14 -7 6 -38 -18 -46
-93 -33 -50 9 -66 9 -94 -5 -18 -8 -36 -19 -39 -24 -3 -5 -21 -4 -41 2 -32 10
-38 9 -52 -10 -10 -11 -25 -23 -34 -26 -10 -4 -18 -15 -18 -25 0 -10 -3 -21
-6 -25 -11 -11 -34 5 -34 24 0 12 -7 19 -18 19 -9 0 -34 13 -54 30 -29 24 -37
27 -42 15 -9 -24 -43 -17 -66 12 -24 31 -27 28 -57 -44 -10 -24 -23 -43 -29
-43 -17 0 -47 38 -39 50 7 11 -11 40 -26 40 -4 0 -14 -12 -21 -27 -17 -35 -52
-38 -56 -5 -2 14 -10 22 -23 22 -12 0 -19 7 -19 19 0 33 -15 32 -55 -5 -47
-43 -74 -40 -98 11 -9 20 -24 38 -32 41 -8 4 -15 13 -15 21 0 10 -6 12 -20 8
-10 -3 -29 -1 -41 6 -18 9 -24 8 -31 -5 -11 -20 -38 -21 -64 -1 -14 10 -33 13
-67 8 -43 -5 -51 -3 -76 21 -22 21 -37 27 -62 24 -32 -3 -35 -1 -49 42 -23 69
-29 75 -51 51 -17 -18 -23 -19 -40 -8 -20 12 -28 7 -43 -28 -2 -5 -16 5 -31
23 -14 17 -46 44 -71 58 l-44 26 0 469 0 469 -535 0 -535 0 0 -22z"/>
<path d="M2216 4934 c-9 -8 -16 -23 -16 -32 0 -9 -3 -27 -6 -39 l-6 -23 141 0
141 0 -5 -22 c-2 -13 -34 -174 -70 -358 -36 -184 -68 -343 -71 -352 -5 -16 2
-18 58 -18 l63 0 74 375 73 375 143 0 144 0 9 43 c7 33 6 45 -6 55 -12 9 -94
12 -333 12 -275 0 -320 -2 -333 -16z"/>
<path d="M5323 4942 c-10 -6 -173 -798 -173 -839 0 -9 17 -13 59 -13 l58 0 84
421 c72 360 81 421 69 429 -18 12 -80 13 -97 2z"/>
<path d="M6285 4806 c-38 -11 -40 -14 -53 -72 -13 -60 -13 -61 -60 -75 -44
-14 -47 -17 -47 -49 0 -33 2 -35 36 -38 l37 -3 -14 -61 c-70 -298 -72 -358
-18 -409 22 -21 35 -24 93 -23 54 0 77 6 121 30 61 32 68 46 46 98 l-15 36
-49 -31 c-65 -40 -106 -38 -110 7 -2 25 43 264 64 337 5 14 18 17 89 17 l84 0
9 43 c5 23 7 45 5 50 -2 4 -40 7 -84 7 -77 0 -79 1 -74 23 18 81 23 112 19
119 -7 11 -31 9 -79 -6z"/>
<path d="M2962 4676 c-136 -44 -251 -216 -252 -374 0 -200 158 -286 357 -193
l66 31 -7 43 c-4 23 -11 46 -16 51 -5 5 -35 -5 -71 -23 -80 -40 -139 -42 -174
-6 -14 13 -25 35 -25 49 0 13 -3 31 -6 40 -4 11 5 18 38 26 133 34 251 101
288 163 39 63 18 161 -39 187 -40 18 -112 21 -159 6z m92 -118 c8 -13 6 -23
-10 -44 -31 -42 -184 -113 -184 -86 0 5 15 32 33 58 55 83 132 117 161 72z"/>
<path d="M4058 4676 c-133 -37 -251 -187 -279 -355 -6 -38 -9 -89 -5 -113 23
-153 171 -184 305 -63 l41 37 0 -30 c0 -32 18 -82 30 -82 3 0 28 7 54 16 46
16 47 17 39 48 -13 51 -6 106 37 309 23 106 42 198 43 206 3 18 -34 28 -135
35 -55 4 -99 1 -130 -8z m129 -100 c9 -8 -31 -158 -57 -214 -33 -71 -123 -167
-165 -178 -50 -12 -60 4 -60 97 1 75 4 90 33 145 58 107 145 171 216 159 16
-3 31 -7 33 -9z"/>
<path d="M4574 4680 c-85 -20 -143 -90 -144 -173 0 -60 27 -104 102 -164 72
-59 89 -89 68 -128 -22 -40 -110 -48 -175 -15 -22 11 -42 20 -46 20 -4 0 -12
-21 -18 -46 -15 -57 -7 -69 62 -89 126 -37 254 6 293 101 34 81 5 159 -85 228
-66 51 -81 71 -81 110 0 52 89 74 167 41 42 -18 46 -15 63 39 15 48 4 59 -72
75 -55 12 -88 13 -134 1z"/>
<path d="M5830 4681 c-44 -14 -90 -41 -132 -79 l-41 -37 8 35 c17 73 15 75
-40 72 -27 -2 -54 -7 -58 -11 -6 -6 -126 -545 -127 -568 0 -2 26 -3 58 -3 l59
0 27 128 c15 70 36 146 46 170 38 85 187 204 234 186 9 -3 19 -17 22 -30 5
-18 -58 -351 -82 -436 -5 -16 2 -18 54 -18 l60 0 12 53 c83 378 91 437 65 486
-25 49 -98 72 -165 52z"/>
<path d="M6784 4679 c-86 -25 -183 -124 -225 -228 -30 -77 -37 -197 -15 -256
33 -86 119 -133 225 -122 58 6 181 60 181 80 0 22 -21 87 -28 87 -4 0 -34 -14
-66 -30 -95 -48 -165 -39 -192 25 -26 63 -21 71 58 95 184 56 278 137 278 239
0 90 -104 143 -216 110z m85 -113 c29 -35 -44 -101 -158 -141 l-41 -14 24 47
c48 93 140 150 175 108z"/>
<path d="M7850 4681 c-37 -12 -100 -47 -138 -77 l-32 -27 6 29 c13 69 13 69
-41 66 -27 -1 -53 -6 -58 -11 -5 -5 -33 -123 -63 -262 -29 -140 -56 -266 -60
-281 l-6 -28 60 0 59 0 28 133 c15 72 36 148 45 168 29 56 103 132 159 163 57
31 88 28 97 -9 5 -19 -36 -236 -81 -432 -5 -22 -2 -23 55 -23 33 0 60 1 60 3
0 2 20 99 45 215 25 116 45 228 45 249 -1 95 -85 153 -180 124z"/>
<path d="M8279 4675 c-136 -44 -169 -202 -62 -298 106 -96 113 -104 113 -135
0 -21 -8 -36 -22 -46 -32 -22 -111 -20 -158 4 -52 27 -57 26 -64 -16 -4 -19
-10 -42 -12 -49 -4 -9 10 -22 38 -36 61 -33 185 -33 245 -2 54 30 85 74 91
133 7 71 -12 114 -71 163 -112 93 -127 122 -87 165 25 27 92 30 147 7 19 -8
39 -15 43 -15 7 0 30 67 30 88 0 38 -153 62 -231 37z"/>
<path d="M7205 4673 c-16 -3 -33 -8 -37 -11 -4 -4 -32 -126 -63 -272 -31 -146
-58 -273 -61 -282 -5 -16 2 -18 55 -18 l60 0 16 78 c34 156 47 198 78 247 68
107 122 150 175 139 29 -6 30 -4 42 45 17 71 11 81 -47 81 -54 0 -92 -21 -135
-72 l-27 -33 9 35 c20 71 17 74 -65 63z"/>
<path d="M3290 4661 c0 -5 27 -69 61 -141 l61 -131 -35 -42 c-19 -23 -74 -87
-121 -142 -47 -55 -86 -103 -86 -107 0 -5 30 -8 68 -8 l67 0 74 90 c40 50 77
90 81 90 4 0 25 -40 48 -90 l41 -90 60 0 c34 0 61 3 61 6 0 4 -27 64 -60 133
-33 70 -60 131 -60 137 0 5 54 73 120 149 66 77 120 143 120 147 0 5 -30 8
-67 8 l-68 0 -80 -97 -79 -96 -23 49 c-12 27 -31 70 -42 96 l-20 48 -60 0
c-34 0 -61 -4 -61 -9z"/>
<path d="M5350 3911 c0 -28 75 -133 112 -158 46 -31 56 -52 57 -131 1 -38 7
-62 21 -79 14 -18 20 -41 20 -74 0 -49 9 -65 57 -96 21 -14 24 -23 22 -62 -2
-28 3 -56 11 -71 8 -14 20 -38 26 -55 9 -25 17 -30 50 -33 27 -2 49 -13 71
-34 29 -28 35 -30 77 -24 41 6 50 4 83 -22 21 -17 49 -33 63 -37 14 -4 34 -13
46 -20 14 -9 50 -13 107 -12 l86 2 50 -49 c49 -48 71 -53 71 -15 0 14 7 19 30
19 19 0 33 7 40 19 14 28 12 51 -4 51 -24 0 -43 27 -50 72 -4 25 -17 54 -33
70 -21 22 -26 37 -27 85 -1 44 -6 65 -23 87 -29 36 -30 85 -3 128 31 52 27 65
-27 75 -34 6 -48 13 -48 25 0 9 -9 26 -19 37 -27 30 -13 37 23 12 16 -12 36
-18 45 -15 9 3 23 0 32 -7 20 -16 34 2 34 47 0 17 11 48 25 68 l25 36 -39 38
c-51 49 -43 66 31 64 41 -1 58 4 75 20 52 49 63 48 -547 48 -352 0 -570 -4
-570 -9z"/>
</g>
</svg>
