<svg id="svg" version="1.1" xmlns="http://www.w3.org/2000/svg" xmlns:xlink="http://www.w3.org/1999/xlink" width="100" height="1000" viewBox="0 0 1080.000000 1080.000000" preserveAspectRatio="xMidYMid meet"><g id="svgg"><path id="path0" d="M157.261 110.833 C 157.143 112.718,156.616 130.007,156.089 149.255 C 155.563 168.502,155.089 184.293,155.037 184.346 C 154.984 184.399,144.454 183.860,131.637 183.148 C 118.820 182.435,107.625 181.852,106.759 181.852 L 105.185 181.852 105.185 183.872 C 105.185 185.619,105.313 185.981,106.134 186.557 C 108.502 188.217,109.220 188.986,109.445 190.103 C 109.891 192.321,110.018 192.499,111.584 193.098 C 112.819 193.570,113.433 194.152,114.501 195.863 C 115.385 197.278,116.302 198.242,117.145 198.642 C 118.027 199.061,118.615 199.701,118.999 200.661 C 119.403 201.670,120.225 202.528,121.910 203.698 C 123.202 204.596,124.413 205.589,124.601 205.906 C 124.790 206.222,125.498 206.993,126.175 207.619 C 126.853 208.244,127.407 208.994,127.406 209.286 C 127.405 209.577,127.687 210.606,128.034 211.574 L 128.665 213.333 207.805 213.333 L 286.946 213.333 286.761 211.691 C 286.615 210.399,286.773 209.697,287.500 208.395 C 289.336 205.111,288.955 196.667,286.971 196.667 C 286.804 196.667,286.666 196.125,286.665 195.463 C 286.664 194.605,286.291 193.855,285.369 192.850 C 284.284 191.669,284.074 191.166,284.074 189.750 C 284.074 188.023,282.506 184.858,281.637 184.828 C 280.602 184.793,279.596 171.309,279.626 157.870 C 279.630 156.087,278.070 155.665,275.819 156.840 C 274.877 157.331,274.722 157.315,274.060 156.652 C 273.559 156.152,272.829 155.926,271.709 155.926 C 270.386 155.926,269.973 155.755,269.479 155.000 C 269.049 154.345,268.539 154.074,267.735 154.074 C 266.920 154.074,266.544 153.870,266.409 153.354 C 266.300 152.936,265.772 152.536,265.148 152.399 C 264.557 152.269,264.074 151.944,264.074 151.677 C 264.074 151.173,263.291 150.741,262.377 150.741 C 262.088 150.741,261.852 151.079,261.852 151.493 C 261.852 152.555,261.033 152.747,258.565 152.261 C 256.349 151.825,253.704 152.418,253.704 153.351 C 253.704 153.607,253.472 153.606,252.987 153.346 C 251.748 152.683,250.497 152.899,249.849 153.889 C 249.515 154.398,249.008 154.815,248.721 154.815 C 248.434 154.815,248.127 155.190,248.039 155.648 L 247.879 156.481 247.828 155.648 C 247.795 155.101,247.541 154.815,247.089 154.815 C 246.710 154.815,245.786 154.398,245.035 153.889 C 243.509 152.853,242.948 152.756,242.292 153.411 C 241.941 153.763,241.603 153.597,240.737 152.648 C 239.402 151.186,239.263 151.252,238.158 153.865 C 237.370 155.729,235.848 156.414,236.548 154.589 C 237.195 152.903,234.396 152.032,233.704 153.704 C 233.141 155.062,232.222 155.177,232.222 153.889 C 232.222 153.313,232.012 152.963,231.667 152.963 C 231.361 152.963,231.111 152.808,231.111 152.619 C 231.111 152.091,230.011 151.111,229.418 151.111 C 229.127 151.111,228.889 151.350,228.889 151.642 C 228.889 151.934,228.571 152.273,228.182 152.397 C 227.794 152.520,227.382 152.864,227.268 153.162 C 226.921 154.067,226.043 153.770,225.550 152.580 C 225.294 151.962,224.691 151.146,224.209 150.767 C 223.727 150.389,223.333 149.901,223.333 149.684 C 223.333 149.467,222.875 149.297,222.315 149.306 C 221.755 149.315,220.838 149.205,220.278 149.062 C 219.480 148.859,219.259 148.932,219.259 149.401 C 219.259 150.145,218.786 150.157,217.414 149.448 C 216.678 149.067,215.822 148.968,214.655 149.128 C 213.128 149.337,212.888 149.264,212.188 148.373 C 211.528 147.535,211.223 147.422,210.156 147.622 C 208.827 147.872,208.148 147.028,208.148 145.128 C 208.148 144.344,206.815 142.996,206.019 142.975 C 205.764 142.969,205.556 143.304,205.556 143.720 C 205.556 144.386,205.397 144.448,204.259 144.235 C 203.226 144.041,202.963 144.109,202.963 144.572 C 202.963 144.979,202.250 144.631,200.582 143.410 L 198.201 141.667 198.175 124.537 L 198.148 107.407 177.812 107.407 L 157.477 107.407 157.261 110.833 M156.019 226.922 C 156.375 227.015,156.958 227.015,157.315 226.922 C 157.671 226.829,157.380 226.753,156.667 226.753 C 155.954 226.753,155.662 226.829,156.019 226.922 M268.588 226.896 C 268.932 226.999,269.298 227.364,269.400 227.708 C 269.536 228.161,269.566 228.131,269.512 227.597 C 269.467 227.165,269.131 226.829,268.699 226.785 C 268.165 226.730,268.135 226.760,268.588 226.896 M283.889 226.919 C 284.296 227.031,284.767 227.312,284.936 227.543 C 285.138 227.820,285.191 227.774,285.092 227.407 C 285.009 227.102,284.538 226.821,284.045 226.783 C 283.338 226.730,283.305 226.758,283.889 226.919 M122.033 227.415 C 121.892 227.641,121.878 227.927,122.000 228.049 C 122.122 228.172,122.222 228.077,122.222 227.840 C 122.222 227.295,126.154 227.246,126.423 227.787 C 126.526 227.996,126.569 227.954,126.517 227.694 C 126.395 227.083,122.392 226.833,122.033 227.415 M137.696 227.312 C 139.275 227.401,139.940 227.575,139.768 227.853 C 139.614 228.102,139.685 228.158,139.949 227.995 C 140.865 227.428,139.863 227.040,137.663 227.108 L 135.370 227.180 137.696 227.312 M176.111 227.480 C 176.519 227.711,176.974 228.081,177.124 228.302 C 177.311 228.578,177.398 228.564,177.402 228.254 C 177.405 228.006,177.085 227.631,176.691 227.420 C 175.716 226.899,175.183 226.953,176.111 227.480 M213.611 227.619 C 212.175 228.398,212.338 228.667,213.796 227.925 C 215.192 227.215,215.440 227.031,214.969 227.052 C 214.782 227.060,214.171 227.315,213.611 227.619 M235.556 227.267 C 237.700 227.542,241.029 227.572,240.870 227.315 C 240.775 227.162,239.332 227.062,237.663 227.093 C 235.995 227.123,235.046 227.201,235.556 227.267 M226.667 229.423 C 226.667 229.920,226.803 230.411,226.970 230.514 C 227.137 230.617,227.201 230.210,227.113 229.610 C 226.919 228.286,226.667 228.180,226.667 229.423 M210.428 230.037 C 209.746 230.657,209.258 231.233,209.342 231.317 C 209.426 231.401,210.058 230.890,210.746 230.180 C 212.283 228.593,212.104 228.513,210.428 230.037 M269.009 229.702 C 269.038 230.472,269.156 230.610,269.524 230.305 C 270.071 229.850,270.168 229.482,269.658 229.797 C 269.469 229.914,269.238 229.715,269.143 229.356 C 269.049 228.997,268.989 229.153,269.009 229.702 M144.606 230.463 L 143.519 231.667 144.722 230.579 C 145.844 229.565,146.096 229.259,145.810 229.259 C 145.746 229.259,145.205 229.801,144.606 230.463 M297.143 231.296 C 297.146 232.315,297.218 232.688,297.303 232.125 C 297.388 231.562,297.386 230.728,297.298 230.273 C 297.210 229.817,297.140 230.278,297.143 231.296 M147.946 232.685 L 146.481 234.259 148.056 232.795 C 149.519 231.434,149.800 231.111,149.520 231.111 C 149.459 231.111,148.751 231.819,147.946 232.685 M270.903 233.056 L 269.815 234.259 271.019 233.171 C 271.681 232.573,272.222 232.031,272.222 231.968 C 272.222 231.682,271.917 231.934,270.903 233.056 M130.177 233.342 C 129.659 233.915,129.428 233.980,129.200 233.620 C 128.985 233.281,128.899 233.272,128.895 233.589 C 128.884 234.446,129.532 234.411,130.381 233.507 C 130.854 233.004,131.154 232.593,131.048 232.593 C 130.942 232.593,130.550 232.930,130.177 233.342 M285.717 233.796 L 284.630 235.000 285.833 233.912 C 286.495 233.314,287.037 232.772,287.037 232.708 C 287.037 232.422,286.731 232.674,285.717 233.796 M100.485 240.926 C 100.487 242.148,100.556 242.603,100.639 241.938 C 100.721 241.272,100.720 240.272,100.635 239.716 C 100.551 239.159,100.483 239.704,100.485 240.926 M144.160 240.741 C 144.160 241.454,144.236 241.745,144.329 241.389 C 144.423 241.032,144.423 240.449,144.329 240.093 C 144.236 239.736,144.160 240.028,144.160 240.741 M139.741 242.593 C 139.741 243.713,139.810 244.171,139.895 243.611 C 139.980 243.051,139.980 242.134,139.895 241.574 C 139.810 241.014,139.741 241.472,139.741 242.593 M312.699 242.407 C 312.701 243.426,312.773 243.799,312.858 243.236 C 312.943 242.673,312.941 241.839,312.853 241.384 C 312.765 240.928,312.696 241.389,312.699 242.407 M149.610 243.241 L 148.333 244.630 149.722 243.353 C 151.015 242.165,151.281 241.852,150.999 241.852 C 150.937 241.852,150.312 242.477,149.610 243.241 M253.333 244.444 C 252.620 244.835,252.170 245.161,252.333 245.170 C 252.726 245.190,254.815 244.104,254.815 243.879 C 254.815 243.637,254.793 243.645,253.333 244.444 M144.768 244.940 C 145.396 245.701,146.661 245.733,147.614 245.011 C 148.264 244.519,148.216 244.510,147.122 244.910 C 146.144 245.268,145.751 245.254,145.085 244.839 C 144.330 244.369,144.303 244.378,144.768 244.940 M151.091 246.204 L 149.815 247.593 151.204 246.316 C 152.496 245.128,152.763 244.815,152.480 244.815 C 152.418 244.815,151.793 245.440,151.091 246.204 M231.797 245.279 C 231.984 245.466,232.531 245.556,233.013 245.480 C 233.754 245.364,233.702 245.312,232.674 245.141 C 231.938 245.019,231.592 245.074,231.797 245.279 M107.875 245.451 C 108.438 245.536,109.272 245.534,109.727 245.446 C 110.183 245.358,109.722 245.288,108.704 245.291 C 107.685 245.294,107.312 245.366,107.875 245.451 M249.357 245.451 C 249.920 245.536,250.753 245.534,251.209 245.446 C 251.664 245.358,251.204 245.288,250.185 245.291 C 249.167 245.294,248.794 245.366,249.357 245.451 M304.172 245.451 C 304.735 245.536,305.568 245.534,306.024 245.446 C 306.479 245.358,306.019 245.288,305.000 245.291 C 303.981 245.294,303.609 245.366,304.172 245.451 M242.963 246.042 C 242.963 246.106,243.505 246.647,244.167 247.246 L 245.370 248.333 244.283 247.130 C 243.269 246.008,242.963 245.756,242.963 246.042 M197.407 255.354 C 197.407 255.447,197.782 256.094,198.241 256.793 C 198.699 257.492,199.352 258.572,199.691 259.193 C 200.030 259.814,200.982 260.747,201.805 261.267 C 203.479 262.324,204.267 264.272,203.978 266.642 C 203.856 267.641,204.029 268.218,204.686 269.010 C 205.304 269.754,205.556 270.522,205.556 271.665 C 205.556 273.822,205.782 274.295,207.249 275.202 C 208.433 275.933,208.486 276.058,208.277 277.587 C 208.100 278.874,208.215 279.424,208.843 280.305 C 209.275 280.913,209.630 281.639,209.630 281.919 C 209.630 283.123,210.793 284.126,212.062 284.017 C 213.003 283.936,213.563 284.156,214.359 284.918 C 215.235 285.757,215.749 285.928,217.428 285.941 C 219.114 285.954,219.654 286.135,220.727 287.052 C 221.432 287.655,222.297 288.148,222.650 288.148 C 223.003 288.148,223.842 288.473,224.516 288.870 C 225.533 289.470,226.090 289.545,227.799 289.312 C 230.593 288.932,231.678 289.301,233.740 291.332 C 235.639 293.203,236.476 293.296,236.881 291.683 C 237.046 291.025,237.367 290.741,237.946 290.741 C 239.536 290.741,240.620 288.546,239.556 287.481 C 239.311 287.237,238.827 287.037,238.479 287.037 C 238.000 287.037,237.785 286.581,237.588 285.154 C 237.409 283.854,236.997 282.892,236.257 282.049 C 235.344 281.009,235.185 280.517,235.185 278.723 C 235.185 277.057,234.995 276.368,234.274 275.422 C 233.311 274.160,233.325 272.969,234.316 271.818 C 235.376 270.586,235.132 268.383,233.910 268.161 C 233.310 268.052,232.894 267.796,232.984 267.593 C 233.074 267.389,233.315 267.257,233.519 267.299 C 235.248 267.660,235.288 267.628,235.711 265.553 C 236.098 263.652,237.232 261.520,237.870 261.493 C 238.500 261.467,238.084 260.696,237.229 260.306 C 236.724 260.076,236.213 259.580,236.093 259.203 C 235.974 258.827,235.627 258.519,235.324 258.519 C 235.008 258.519,234.882 258.339,235.029 258.102 C 235.195 257.833,235.991 257.757,237.267 257.889 C 239.222 258.091,241.538 256.546,240.880 255.481 C 240.692 255.177,197.407 255.051,197.407 255.354 " stroke="none" fill="#cb5404" fill-rule="evenodd"></path><path id="path1" d="M82.083 218.565 C 81.956 219.201,81.852 219.868,81.852 220.046 C 81.852 220.225,84.102 220.370,86.852 220.370 C 91.343 220.370,91.852 220.436,91.852 221.011 C 91.852 221.579,87.303 245.221,86.790 247.315 C 86.518 248.429,89.812 248.611,90.144 247.500 C 90.250 247.144,91.427 241.269,92.759 234.444 C 94.090 227.620,95.268 221.662,95.375 221.204 C 95.566 220.387,95.677 220.370,100.887 220.370 L 106.204 220.370 106.435 219.213 C 106.563 218.576,106.667 217.910,106.667 217.731 C 106.667 217.553,101.201 217.407,94.491 217.407 L 82.315 217.407 82.083 218.565 M197.223 217.870 C 197.134 218.125,195.796 224.833,194.251 232.778 C 192.705 240.722,191.371 247.431,191.287 247.685 C 191.179 248.012,191.651 248.148,192.892 248.148 L 194.650 248.148 197.544 233.426 C 199.135 225.329,200.517 218.412,200.614 218.056 C 200.832 217.257,197.500 217.075,197.223 217.870 M233.419 222.347 C 232.151 222.631,231.796 222.891,231.623 223.665 C 230.805 227.320,230.825 227.287,229.073 227.778 C 226.796 228.416,226.517 230.370,228.704 230.370 C 229.512 230.370,230.000 230.549,230.000 230.846 C 230.000 231.108,229.417 233.965,228.704 237.196 C 227.325 243.443,227.153 245.333,227.829 246.817 C 229.388 250.237,238.770 248.549,237.694 245.042 L 237.300 243.758 235.379 244.842 C 230.744 247.458,230.164 246.136,232.069 237.288 L 233.519 230.556 236.651 230.370 C 239.609 230.196,239.799 230.133,240.040 229.259 C 240.550 227.417,240.536 227.407,237.407 227.407 C 234.043 227.407,234.114 227.501,234.851 224.067 C 235.333 221.817,235.404 221.902,233.419 222.347 M108.646 227.779 C 99.535 232.409,98.307 247.538,106.948 248.683 C 109.868 249.069,115.764 247.065,115.383 245.815 C 115.308 245.570,115.145 244.904,115.020 244.335 L 114.792 243.299 113.717 244.065 C 109.169 247.303,104.442 245.850,104.445 241.216 C 104.446 240.245,104.635 240.125,107.692 239.159 C 115.716 236.624,119.600 231.654,116.208 228.261 C 114.797 226.851,110.956 226.606,108.646 227.779 M149.350 227.678 C 144.190 229.825,140.369 236.129,140.372 242.488 C 140.375 249.472,145.656 251.000,151.204 245.622 L 152.963 243.917 152.965 245.014 C 152.966 245.617,153.138 246.726,153.346 247.477 L 153.726 248.842 155.104 248.363 L 156.481 247.883 156.362 245.701 C 156.276 244.147,156.729 241.236,157.935 235.586 C 158.867 231.223,159.569 227.593,159.495 227.520 C 158.934 226.959,150.774 227.086,149.350 227.678 M168.243 227.588 C 163.754 229.539,163.313 234.673,167.340 238.077 C 171.478 241.573,172.099 243.017,170.222 244.781 C 168.690 246.219,166.494 246.179,162.889 244.647 C 161.859 244.209,161.332 246.644,162.277 247.476 C 165.084 249.947,172.302 248.663,173.841 245.420 C 175.375 242.187,174.394 239.378,170.740 236.541 C 165.620 232.565,168.108 228.516,174.496 230.430 C 176.178 230.934,176.157 230.946,176.481 229.214 C 176.865 227.157,171.617 226.122,168.243 227.588 M214.544 227.765 C 213.682 228.156,212.137 229.261,211.112 230.220 C 208.967 232.227,208.722 232.192,209.237 229.956 C 209.841 227.339,209.816 227.285,208.118 227.513 C 207.286 227.624,206.556 227.771,206.496 227.839 C 206.377 227.974,202.222 247.463,202.222 247.887 C 202.222 248.031,202.941 248.148,203.819 248.148 L 205.415 248.148 206.267 243.796 C 207.611 236.924,210.186 232.892,214.591 230.760 C 218.991 228.629,219.351 230.122,217.033 240.900 C 216.220 244.678,215.556 247.854,215.556 247.958 C 215.556 248.063,216.278 248.148,217.161 248.148 L 218.767 248.148 220.376 240.648 C 222.398 231.226,222.455 229.572,220.814 228.106 C 219.352 226.799,216.957 226.669,214.544 227.765 M250.108 227.741 C 241.535 231.742,239.618 246.421,247.395 248.515 C 250.423 249.330,256.673 247.488,256.662 245.783 C 256.647 243.448,256.458 243.377,253.821 244.704 C 249.326 246.966,245.932 245.561,245.927 241.438 C 245.926 240.110,245.947 240.092,248.241 239.449 C 255.322 237.463,259.399 233.754,258.645 229.983 C 258.106 227.291,253.604 226.109,250.108 227.741 M272.376 227.951 C 271.544 228.450,270.396 229.532,269.825 230.355 C 268.687 231.998,267.932 232.324,268.290 231.019 C 268.416 230.560,268.628 229.535,268.760 228.740 L 269.002 227.295 267.433 227.505 C 265.497 227.765,266.004 226.430,263.741 237.222 C 262.673 242.315,261.710 246.856,261.600 247.315 C 261.417 248.084,261.528 248.148,263.042 248.148 L 264.683 248.148 265.669 243.481 C 267.313 235.704,271.733 229.830,275.129 230.908 C 275.806 231.123,276.926 227.790,276.365 227.229 C 275.879 226.743,273.747 227.129,272.376 227.951 M282.800 227.477 C 281.997 227.652,281.296 227.840,281.241 227.894 C 281.109 228.027,277.037 247.307,277.037 247.802 C 277.037 248.030,277.681 248.143,278.589 248.077 L 280.142 247.963 281.155 243.278 C 282.652 236.360,285.473 232.194,289.772 230.552 C 293.710 229.048,294.017 230.534,291.852 240.601 C 291.037 244.390,290.370 247.637,290.370 247.819 C 290.370 248.000,291.079 248.148,291.944 248.148 L 293.519 248.148 294.761 242.315 C 296.722 233.109,297.004 231.208,296.616 229.804 C 295.542 225.912,289.875 226.191,285.617 230.346 C 283.677 232.238,283.514 232.142,284.074 229.444 C 284.586 226.976,284.649 227.073,282.800 227.477 M306.418 227.491 C 301.381 229.110,301.234 235.126,306.139 238.910 C 311.603 243.126,308.713 247.686,302.156 245.194 C 299.937 244.351,300.034 244.316,299.754 246.042 C 299.553 247.279,299.622 247.394,300.867 247.915 C 310.292 251.853,316.592 242.838,308.731 236.661 C 303.596 232.625,306.288 228.228,312.556 230.413 C 313.961 230.903,314.044 230.845,314.315 229.170 C 314.632 227.218,310.197 226.275,306.418 227.491 M122.593 227.730 C 122.593 227.908,123.585 230.191,124.798 232.803 L 127.003 237.552 125.277 239.609 C 124.328 240.741,122.552 242.833,121.331 244.259 C 120.111 245.685,118.869 247.144,118.573 247.500 C 118.070 248.104,118.170 248.148,120.035 248.141 L 122.037 248.135 124.932 244.623 C 128.463 240.340,128.350 240.342,130.238 244.546 L 131.773 247.963 133.479 248.076 C 135.562 248.214,135.617 248.733,132.952 243.094 C 131.724 240.496,130.789 238.195,130.875 237.981 C 130.962 237.767,132.967 235.371,135.331 232.657 C 140.355 226.888,140.122 227.405,137.685 227.417 L 135.741 227.427 132.675 231.121 C 128.961 235.597,129.405 235.597,127.462 231.111 L 125.859 227.407 124.226 227.407 C 123.327 227.407,122.593 227.553,122.593 227.730 M155.588 230.206 C 156.002 230.461,154.419 236.795,153.470 238.685 C 150.798 244.004,146.229 247.185,144.471 244.950 C 141.845 241.611,146.463 231.166,151.009 230.162 C 151.575 230.037,152.204 229.874,152.407 229.800 C 152.794 229.659,155.200 229.965,155.588 230.206 M113.467 230.814 C 114.510 232.479,111.898 235.037,107.696 236.464 C 104.985 237.384,104.742 237.079,106.139 234.506 C 108.168 230.769,112.174 228.750,113.467 230.814 M254.741 230.444 C 256.070 231.774,254.416 234.040,250.903 235.704 C 246.742 237.674,245.964 237.431,247.446 234.624 C 249.365 230.993,253.131 228.835,254.741 230.444 " stroke="none" fill="#110e0c" fill-rule="evenodd"></path><path id="path2" d="M58.519 213.513 C 58.519 213.612,61.697 218.290,65.582 223.908 C 72.257 233.561,72.616 234.168,72.112 234.932 C 71.819 235.377,68.640 239.980,65.049 245.162 C 61.457 250.344,58.519 254.794,58.519 255.052 C 58.519 255.430,86.125 255.517,200.210 255.499 C 316.159 255.480,341.867 255.389,341.716 254.995 C 341.574 254.624,333.745 243.205,328.105 235.141 L 327.426 234.171 334.616 223.752 L 341.805 213.333 200.162 213.333 C 122.258 213.333,58.519 213.414,58.519 213.513 M107.139 217.315 C 107.219 217.468,107.136 218.301,106.954 219.167 L 106.623 220.741 101.328 220.741 L 96.033 220.741 93.279 234.537 L 90.526 248.333 88.411 248.444 C 85.734 248.585,85.693 249.832,88.889 233.889 C 90.315 226.776,91.481 220.907,91.481 220.848 C 91.481 220.789,89.148 220.741,86.296 220.741 C 83.444 220.741,81.111 220.648,81.111 220.534 C 81.111 220.421,81.298 219.588,81.525 218.683 L 81.940 217.037 94.467 217.037 C 101.356 217.037,107.059 217.162,107.139 217.315 M201.111 217.471 C 201.111 217.710,199.758 224.794,198.105 233.212 L 195.098 248.519 192.919 248.519 C 191.391 248.519,190.741 248.376,190.741 248.042 C 190.741 247.464,196.594 218.154,196.840 217.500 C 197.071 216.886,201.111 216.859,201.111 217.471 M235.690 221.769 C 235.787 221.927,235.633 223.052,235.347 224.269 C 235.061 225.486,234.824 226.606,234.821 226.759 C 234.817 226.912,236.120 227.037,237.716 227.037 C 241.171 227.037,241.104 226.990,240.625 229.082 L 240.246 230.741 237.174 230.741 L 234.103 230.741 233.745 232.130 C 230.632 244.228,230.980 246.852,235.359 244.285 C 237.498 243.032,237.678 243.068,238.156 244.843 C 239.233 248.842,229.961 250.889,227.536 247.188 C 226.595 245.751,226.772 243.167,228.272 236.481 L 229.519 230.926 228.185 230.741 C 225.738 230.401,226.219 228.164,228.912 227.357 C 230.264 226.952,230.351 226.829,230.813 224.688 C 231.294 222.455,231.306 222.440,232.963 221.998 C 235.044 221.444,235.466 221.408,235.690 221.769 M114.286 226.712 C 121.809 228.606,117.625 236.552,107.481 239.633 L 104.796 240.448 105.024 241.798 C 105.624 245.337,108.672 246.234,112.770 244.078 C 115.194 242.803,115.415 242.875,115.762 245.049 L 116.007 246.580 113.652 247.734 C 100.562 254.145,94.863 236.817,107.177 228.049 C 109.224 226.591,111.847 226.098,114.286 226.712 M157.870 226.880 C 160.465 227.175,160.416 226.503,158.493 235.420 C 156.961 242.527,156.633 245.332,157.128 247.095 C 157.383 248.003,155.391 249.259,153.697 249.259 C 153.267 249.259,152.593 247.412,152.593 246.236 L 152.593 245.099 151.133 246.417 C 144.519 252.393,138.254 248.523,140.086 239.593 C 141.463 232.877,145.862 227.780,151.238 226.668 C 152.741 226.358,153.500 226.382,157.870 226.880 M176.214 227.256 C 177.493 227.775,177.539 228.158,176.622 230.648 C 176.257 231.637,176.355 231.623,174.687 230.926 C 169.513 228.764,166.367 232.246,170.439 235.628 C 173.527 238.193,174.409 239.234,174.836 240.819 C 176.147 245.688,171.650 249.868,165.919 249.108 C 163.979 248.851,161.669 248.010,161.312 247.432 C 161.120 247.122,161.782 243.704,162.034 243.704 C 162.086 243.704,162.913 244.051,163.872 244.475 C 170.233 247.289,173.166 243.220,167.770 239.068 C 162.436 234.963,163.246 227.829,169.159 226.840 C 169.927 226.711,170.722 226.549,170.926 226.480 C 171.591 226.255,174.971 226.750,176.214 227.256 M220.741 227.379 C 223.059 229.020,223.078 230.377,220.926 240.411 C 220.009 244.684,219.259 248.257,219.259 248.350 C 219.259 248.443,218.241 248.519,216.997 248.519 C 215.334 248.519,214.783 248.395,214.914 248.053 C 215.012 247.797,215.808 244.133,216.683 239.911 C 218.739 229.979,218.462 229.029,214.217 231.464 C 210.050 233.854,208.271 236.782,206.839 243.611 L 205.809 248.519 203.638 248.519 C 201.576 248.519,201.477 248.477,201.662 247.685 C 201.770 247.227,202.773 242.532,203.893 237.252 C 205.013 231.972,206.004 227.576,206.095 227.485 C 207.039 226.541,210.502 226.735,210.228 227.716 C 210.133 228.056,209.943 228.890,209.805 229.571 L 209.556 230.810 211.595 229.149 C 214.994 226.380,218.398 225.721,220.741 227.379 M257.221 227.371 C 262.461 230.356,258.049 236.895,248.941 239.644 L 246.215 240.467 246.431 241.799 C 246.996 245.278,250.061 246.211,253.969 244.094 C 256.580 242.680,256.553 242.677,257.018 244.352 C 257.607 246.473,257.567 246.542,255.093 247.749 C 247.378 251.512,241.421 247.900,241.937 239.774 C 242.495 230.985,251.186 223.933,257.221 227.371 M295.291 227.094 C 298.039 228.564,298.006 229.720,294.787 244.722 L 293.972 248.519 291.776 248.519 C 289.859 248.519,289.604 248.436,289.771 247.870 C 290.618 244.992,292.988 232.374,292.813 231.675 C 292.308 229.662,289.897 230.276,286.651 233.243 C 283.808 235.841,282.846 237.831,281.638 243.611 L 280.612 248.519 278.454 248.519 C 277.267 248.519,276.297 248.477,276.299 248.426 C 276.330 247.130,280.825 227.584,281.136 227.392 C 282.686 226.434,285.340 226.654,285.043 227.716 C 284.948 228.056,284.753 228.914,284.609 229.624 L 284.347 230.915 285.845 229.562 C 289.047 226.669,292.709 225.712,295.291 227.094 M313.981 227.251 C 315.329 227.798,315.329 227.800,314.799 229.709 C 314.310 231.468,314.066 231.595,312.459 230.923 C 306.545 228.453,304.182 232.574,309.268 236.488 C 316.769 242.260,311.465 251.461,302.191 248.764 C 299.146 247.879,298.809 247.526,299.295 245.741 C 299.852 243.696,300.019 243.605,301.669 244.446 C 307.067 247.198,310.824 243.473,306.413 239.744 C 303.268 237.085,302.630 236.328,302.206 234.755 C 300.630 228.902,307.409 224.582,313.981 227.251 M269.430 227.013 C 269.548 227.204,269.487 228.060,269.295 228.915 L 268.945 230.469 270.491 228.982 C 272.461 227.086,273.303 226.667,275.139 226.667 C 277.013 226.667,277.182 226.964,276.677 229.392 L 276.268 231.367 274.568 231.331 C 271.574 231.269,267.664 236.393,266.541 241.852 C 266.226 243.380,265.779 245.505,265.547 246.574 L 265.124 248.519 263.117 248.519 C 261.375 248.519,261.111 248.423,261.111 247.796 C 261.111 246.969,265.179 227.671,265.401 227.442 C 265.540 227.299,267.840 226.799,268.774 226.709 C 269.017 226.686,269.312 226.823,269.430 227.013 M126.861 228.434 C 127.169 229.203,127.881 230.811,128.445 232.009 L 129.469 234.185 132.526 230.611 L 135.583 227.037 137.770 227.037 C 140.821 227.037,140.832 227.007,135.746 232.898 L 131.180 238.186 133.553 243.179 C 134.858 245.925,135.926 248.258,135.926 248.363 C 135.926 248.468,134.910 248.504,133.669 248.444 L 131.412 248.333 129.822 244.876 L 128.232 241.418 125.320 244.944 L 122.407 248.471 119.907 248.495 C 116.792 248.524,116.637 248.995,121.696 243.074 C 126.982 236.887,126.723 238.043,124.081 232.453 C 121.541 227.078,121.542 227.037,124.284 227.037 C 126.273 227.037,126.310 227.058,126.861 228.434 M150.926 230.705 C 147.810 232.153,145.164 236.083,144.490 240.263 C 142.963 249.747,152.196 244.129,154.458 234.198 C 155.471 229.753,154.673 228.964,150.926 230.705 M109.592 231.214 C 108.283 232.091,105.926 235.263,105.926 236.148 C 105.926 237.208,111.457 234.563,112.686 232.915 C 114.333 230.704,112.147 229.502,109.592 231.214 M250.205 231.873 C 248.761 233.204,246.832 236.215,247.193 236.575 C 247.846 237.228,253.973 233.649,254.478 232.319 C 255.381 229.943,252.612 229.654,250.205 231.873 " stroke="none" fill="#eb7323" fill-rule="evenodd"></path><path id="path3" d="M82.099 217.284 C 81.963 217.420,81.854 217.711,81.858 217.932 C 81.861 218.174,81.979 218.151,82.154 217.876 C 82.373 217.531,85.456 217.392,94.648 217.315 L 106.852 217.212 94.599 217.124 C 87.860 217.076,82.235 217.148,82.099 217.284 M198.883 217.300 C 199.796 217.387,200.684 217.655,200.855 217.896 C 201.071 218.198,201.121 218.162,201.018 217.778 C 200.912 217.387,200.328 217.210,199.045 217.182 L 197.222 217.142 198.883 217.300 M246.458 230.093 L 245.370 231.296 246.574 230.208 C 247.236 229.610,247.778 229.069,247.778 229.005 C 247.778 228.719,247.472 228.971,246.458 230.093 M227.245 230.407 C 227.330 230.545,227.974 230.726,228.674 230.808 C 229.375 230.889,229.878 230.843,229.792 230.704 C 229.707 230.566,229.063 230.385,228.363 230.304 C 227.662 230.222,227.159 230.268,227.245 230.407 M235.093 230.642 C 235.958 230.720,237.375 230.720,238.241 230.642 C 239.106 230.564,238.398 230.500,236.667 230.500 C 234.935 230.500,234.227 230.564,235.093 230.642 M256.829 235.278 L 255.741 236.481 256.944 235.394 C 257.606 234.795,258.148 234.254,258.148 234.190 C 258.148 233.904,257.843 234.156,256.829 235.278 M302.963 236.412 C 302.963 236.476,303.505 237.018,304.167 237.616 L 305.370 238.704 304.283 237.500 C 303.269 236.378,302.963 236.126,302.963 236.412 M241.938 241.111 C 241.938 241.824,242.014 242.116,242.107 241.759 C 242.200 241.403,242.200 240.819,242.107 240.463 C 242.014 240.106,241.938 240.398,241.938 241.111 M156.397 244.815 C 156.397 245.731,156.469 246.106,156.558 245.648 C 156.646 245.190,156.646 244.440,156.558 243.981 C 156.469 243.523,156.397 243.898,156.397 244.815 M152.514 245.556 C 152.603 246.167,152.741 246.667,152.820 246.667 C 152.899 246.667,152.963 246.167,152.963 245.556 C 152.963 244.944,152.825 244.444,152.657 244.444 C 152.488 244.444,152.424 244.944,152.514 245.556 " stroke="none" fill="#824318" fill-rule="evenodd"></path><path id="path4" d="M81.806 220.474 C 81.966 220.633,84.333 220.716,87.067 220.658 L 92.037 220.553 86.777 220.369 C 83.883 220.268,81.647 220.315,81.806 220.474 M98.056 220.645 C 99.532 220.716,101.949 220.716,103.426 220.645 C 104.903 220.575,103.694 220.518,100.741 220.518 C 97.787 220.518,96.579 220.575,98.056 220.645 M210.367 230.560 C 209.717 231.251,209.417 231.370,209.197 231.022 C 208.983 230.686,208.899 230.737,208.895 231.204 C 208.886 232.134,209.342 232.007,210.556 230.741 C 211.141 230.130,211.535 229.630,211.430 229.630 C 211.326 229.630,210.847 230.048,210.367 230.560 M249.239 232.130 L 247.963 233.519 249.352 232.242 C 250.645 231.054,250.911 230.741,250.628 230.741 C 250.566 230.741,249.941 231.366,249.239 232.130 M270.721 232.870 L 269.444 234.259 270.833 232.983 C 271.597 232.281,272.222 231.656,272.222 231.594 C 272.222 231.311,271.909 231.578,270.721 232.870 M302.328 233.148 C 302.331 234.167,302.403 234.539,302.488 233.976 C 302.573 233.413,302.571 232.580,302.483 232.125 C 302.395 231.669,302.325 232.130,302.328 233.148 M285.536 233.611 L 284.259 235.000 285.648 233.724 C 286.941 232.536,287.207 232.222,286.925 232.222 C 286.863 232.222,286.238 232.847,285.536 233.611 M164.450 234.290 C 164.453 234.681,164.625 235.250,164.832 235.556 C 165.106 235.961,165.141 235.811,164.959 235.000 C 164.655 233.638,164.443 233.343,164.450 234.290 M100.859 240.741 C 100.859 242.065,100.927 242.606,101.009 241.944 C 101.091 241.282,101.091 240.199,101.009 239.537 C 100.927 238.875,100.859 239.417,100.859 240.741 M140.122 242.407 C 140.123 243.833,140.190 244.371,140.270 243.603 C 140.350 242.834,140.349 241.668,140.267 241.010 C 140.185 240.353,140.120 240.981,140.122 242.407 M149.980 243.241 L 148.704 244.630 150.093 243.353 C 151.385 242.165,151.652 241.852,151.369 241.852 C 151.307 241.852,150.682 242.477,149.980 243.241 M118.391 247.344 C 117.441 248.393,117.621 248.524,119.907 248.450 L 122.037 248.381 120.054 248.244 C 118.116 248.110,118.086 248.090,118.722 247.387 C 119.081 246.991,119.291 246.667,119.189 246.667 C 119.087 246.667,118.728 246.971,118.391 247.344 M276.710 247.685 C 276.666 248.524,279.653 249.010,280.128 248.241 C 280.222 248.088,279.581 248.020,278.702 248.090 C 277.398 248.194,277.072 248.092,276.929 247.535 C 276.785 246.978,276.745 247.006,276.710 247.685 M90.000 247.716 C 90.000 247.976,89.297 248.174,88.241 248.213 L 86.481 248.278 88.106 248.422 C 89.648 248.559,90.800 248.084,90.253 247.537 C 90.114 247.398,90.000 247.478,90.000 247.716 M290.093 247.778 C 290.195 248.156,290.765 248.347,291.881 248.377 C 293.506 248.419,293.507 248.418,292.042 248.256 C 291.230 248.166,290.425 247.897,290.254 247.658 C 290.041 247.358,289.990 247.396,290.093 247.778 M131.724 248.241 C 131.818 248.394,132.719 248.519,133.726 248.519 C 134.732 248.519,135.556 248.394,135.556 248.241 C 135.556 248.088,134.655 247.963,133.554 247.963 C 132.453 247.963,131.629 248.088,131.724 248.241 M202.190 248.264 C 202.356 248.430,203.223 248.511,204.116 248.443 L 205.741 248.320 203.814 248.141 C 202.755 248.043,202.024 248.099,202.190 248.264 M261.449 248.264 C 261.615 248.430,262.482 248.511,263.376 248.443 L 265.000 248.320 263.073 248.141 C 262.014 248.043,261.283 248.099,261.449 248.264 M191.944 248.413 C 192.505 248.498,193.421 248.498,193.981 248.413 C 194.542 248.329,194.083 248.259,192.963 248.259 C 191.843 248.259,191.384 248.329,191.944 248.413 M216.394 248.414 C 216.957 248.499,217.790 248.497,218.246 248.409 C 218.701 248.321,218.241 248.251,217.222 248.254 C 216.204 248.257,215.831 248.329,216.394 248.414 " stroke="none" fill="#5f3414" fill-rule="evenodd"></path></g></svg>